<svg width="18" height="18" viewBox="0 0 18 18" fill="none" xmlns="http://www.w3.org/2000/svg">
<path d="M10.0505 4H2.75059C1.78776 4 1 4.78776 1 5.75059V11.6501C1 12.6129 1.78776 13.4007 2.75059 13.4007H10.0505C11.0134 13.4007 11.8011 12.6129 11.8011 11.6501V5.75059C11.8011 4.77026 11.0134 4 10.0505 4Z" fill="#434856"/>
<path d="M15.7043 4.96277C15.5993 4.98027 15.4942 5.03279 15.4067 5.08531L12.6758 6.66083V10.7222L15.4242 12.2977C15.9319 12.5953 16.5621 12.4203 16.8597 11.9126C16.9472 11.755 16.9997 11.58 16.9997 11.3874V5.97811C16.9997 5.33039 16.387 4.80521 15.7043 4.96277Z" fill="#434856"/>
</svg>
