<svg width="30" height="31" viewBox="0 0 30 31" fill="none" xmlns="http://www.w3.org/2000/svg">
<path opacity="0.25" fill-rule="evenodd" clip-rule="evenodd" d="M29.7649 15.431C29.7646 15.4557 29.7646 15.4791 29.7642 15.5041C29.7404 17.8364 29.6504 19.1574 29.4349 20.4902C28.7374 24.6828 26.8081 27.4332 23.5476 28.8895C21.9664 29.5891 20.2978 29.9638 18.0258 30.1133C16.8688 30.1878 12.8295 30.154 11.6743 30.0602C9.40558 29.8727 7.74493 29.4701 6.17839 28.7442C2.94813 27.2336 1.07492 24.4514 0.463092 20.2481C0.274558 18.9118 0.211529 17.5895 0.235233 15.2572C0.235578 15.2323 0.235787 15.2089 0.236143 15.1842C0.260999 12.8983 0.351271 11.5898 0.564462 10.2712C1.57374 4.18938 5.18517 1.10329 11.8413 0.653565C12.8729 0.584403 17.2882 0.614867 18.3253 0.701237C20.5939 0.88876 22.2544 1.29129 23.8211 2.01707C27.0514 3.52781 28.9245 6.3099 29.5365 10.5135C29.7228 11.8354 29.7865 13.1452 29.7649 15.431Z" fill="#D4DBFF"/>
<path fill-rule="evenodd" clip-rule="evenodd" d="M6.19402 27.6923C5.27994 27.6923 4.53906 27.0262 4.53906 26.2046V8.61537L10.6343 3.0769H23.8074C24.7213 3.0769 25.4621 3.743 25.4621 4.56482V26.2046C25.4621 27.0262 24.7213 27.6923 23.8074 27.6923H6.19402Z" fill="url(#paint0_linear_2150:5020)"/>
<mask id="mask0_2150:5020" style="mask-type:alpha" maskUnits="userSpaceOnUse" x="4" y="3" width="22" height="25">
<path fill-rule="evenodd" clip-rule="evenodd" d="M6.19402 27.6923C5.27994 27.6923 4.53906 27.0262 4.53906 26.2046V8.61537L10.6343 3.0769H23.8074C24.7213 3.0769 25.4621 3.743 25.4621 4.56482V26.2046C25.4621 27.0262 24.7213 27.6923 23.8074 27.6923H6.19402Z" fill="white"/>
</mask>
<g mask="url(#mask0_2150:5020)">
<path d="M3.92383 1.84619H10.6931V6.61542C10.6931 7.71999 9.79763 8.61542 8.69306 8.61542H3.92383V1.84619Z" fill="white"/>
</g>
<defs>
<linearGradient id="paint0_linear_2150:5020" x1="4.61693" y1="3.0769" x2="4.61693" y2="27.5091" gradientUnits="userSpaceOnUse">
<stop stop-color="#31B479"/>
<stop offset="1" stop-color="#31B475"/>
</linearGradient>
</defs>
</svg>
