<svg width="24" height="24" viewBox="0 0 24 24" fill="none" xmlns="http://www.w3.org/2000/svg">
<path fill-rule="evenodd" clip-rule="evenodd" d="M12.0008 10.5858L16.9505 5.63606C17.341 5.24554 17.9742 5.24554 18.3647 5.63606C18.7552 6.02659 18.7552 6.65975 18.3647 7.05028L13.415 12L18.3647 16.9498C18.7552 17.3403 18.7552 17.9735 18.3647 18.364C17.9742 18.7545 17.341 18.7545 16.9505 18.364L12.0008 13.4142L7.05101 18.364C6.66048 18.7545 6.02732 18.7545 5.63679 18.364C5.24627 17.9735 5.24627 17.3403 5.63679 16.9498L10.5865 12L5.63679 7.05028C5.24627 6.65975 5.24627 6.02659 5.63679 5.63606C6.02732 5.24554 6.66048 5.24554 7.05101 5.63606L12.0008 10.5858Z" fill="#434856"/>
</svg>
