<svg width="24" height="24" viewBox="0 0 24 24" fill="none" xmlns="http://www.w3.org/2000/svg">
<path d="M19.8024 4.86463C19.6705 4.73284 19.5142 4.66673 19.3336 4.66673C19.1531 4.66673 18.997 4.73284 18.8649 4.86463L17.5108 6.20858C16.7677 5.5071 15.9169 4.96358 14.9587 4.57825C14.0005 4.19289 13.0141 4.00024 12.0001 4.00024C10.0903 4.00024 8.42374 4.57829 7.00007 5.73463C5.57636 6.89082 4.6389 8.39936 4.1875 10.2606V10.3335C4.1875 10.4237 4.22045 10.5019 4.28645 10.5678C4.35245 10.6338 4.43053 10.6668 4.5208 10.6668H6.5937C6.74653 10.6668 6.85063 10.5869 6.90623 10.4272C7.19786 9.73284 7.38182 9.32661 7.4583 9.2085C7.94436 8.41684 8.59019 7.79527 9.3958 7.34387C10.2015 6.8925 11.0695 6.66673 12 6.66673C13.396 6.66673 14.6077 7.14247 15.6356 8.09387L14.1979 9.53129C14.0663 9.66326 14.0001 9.8196 14.0001 10.0002C14.0001 10.1807 14.0662 10.337 14.1979 10.4689C14.33 10.6009 14.4863 10.6668 14.6669 10.6668H19.3336C19.5142 10.6668 19.6705 10.6009 19.8024 10.4689C19.9342 10.337 20.0001 10.1807 20.0001 10.0002V5.3334C20.0001 5.15283 19.9346 4.99663 19.8024 4.86463Z" fill="#434856"/>
<path d="M19.4062 13.3334H17.4062C17.2534 13.3334 17.1492 13.4132 17.0938 13.573C16.8023 14.2675 16.6181 14.6735 16.5418 14.7916C16.0556 15.5831 15.4097 16.2049 14.6044 16.6563C13.7986 17.1078 12.9306 17.3333 12.0001 17.3333C11.3265 17.3333 10.6771 17.2084 10.0522 16.9585C9.42721 16.7083 8.8681 16.354 8.37511 15.8957L9.80225 14.4686C9.93414 14.3368 10.0001 14.1804 10.0001 13.9999C10.0001 13.8194 9.93414 13.6629 9.80225 13.5312C9.67028 13.3991 9.51408 13.333 9.33352 13.333H4.66674C4.48606 13.333 4.32979 13.3991 4.19786 13.5312C4.06593 13.6629 4 13.8194 4 13.9999V18.6667C4 18.8471 4.06593 19.0035 4.1979 19.1354C4.32994 19.2672 4.48621 19.3335 4.66678 19.3335C4.84731 19.3335 5.0035 19.2672 5.13551 19.1354L6.47924 17.7916C7.22234 18.4997 8.0679 19.045 9.01583 19.427C9.96377 19.809 10.9447 19.9998 11.9585 19.9998C13.8614 19.9998 15.5211 19.4217 16.9378 18.2655C18.3544 17.1094 19.285 15.6005 19.7296 13.7395C19.7366 13.7256 19.7399 13.7013 19.7399 13.6667C19.7399 13.5763 19.7068 13.4984 19.6408 13.4322C19.5748 13.3665 19.4966 13.3334 19.4062 13.3334Z" fill="#434856"/>
</svg>
