<svg width="18" height="18" viewBox="0 0 18 18" fill="none" xmlns="http://www.w3.org/2000/svg">
<path fill-rule="evenodd" clip-rule="evenodd" d="M5.43483 3.2096C6.73733 3.07087 8.06379 3.00049 9.375 3.00049C10.6862 3.00049 12.0127 3.07087 13.3195 3.21011C14.4091 3.32997 15.3713 4.23629 15.5112 5.27879C15.8298 7.78304 15.8298 10.2179 15.5101 12.7283C15.3713 13.7647 14.4091 14.6705 13.3152 14.7919C12.0121 14.9301 10.6862 15.0005 9.375 15.0005C8.06379 15.0005 6.73788 14.9301 5.43048 14.7914C4.34143 14.671 3.37872 13.7652 3.23877 12.7222C2.92023 10.2179 2.92023 7.78304 3.23986 5.27318C3.37872 4.23629 4.34089 3.32997 5.43483 3.2096ZM7.04022 11.0001H11.9324C12.3563 11.0001 12.5879 10.5057 12.3165 10.18L10.8504 8.42074C10.6622 8.19487 10.3207 8.17937 10.1128 8.38727L9.35346 9.14657C9.1582 9.34183 8.84162 9.34183 8.64635 9.14657L8.39492 8.89513C8.1842 8.68441 7.8371 8.70364 7.65093 8.93634L6.64979 10.1878C6.38788 10.5152 6.62097 11.0001 7.04022 11.0001Z" fill="#434856"/>
</svg>
