<svg width="24" height="24" viewBox="0 0 24 24" fill="none" xmlns="http://www.w3.org/2000/svg">
<path fill-rule="evenodd" clip-rule="evenodd" d="M21.8507 11.5458C21.8535 11.5493 21.856 11.5523 21.8579 11.5548C22.0474 11.8092 22.0474 12.1908 21.8579 12.4452C21.8498 12.4544 21.834 12.4731 21.8109 12.5006C21.2991 13.1088 17.1834 18 12.0079 18C6.65526 18 2.43617 12.789 2.16511 12.4542C2.16225 12.4507 2.15983 12.4477 2.15785 12.4452C1.94738 12.1696 1.94738 11.8092 2.15785 11.5548C2.15983 11.5523 2.16225 11.5493 2.16511 11.5458C2.43617 11.211 6.65526 6 12.0079 6C17.3605 6 21.5796 11.211 21.8507 11.5458ZM8.05104 12C8.05104 14.2049 9.81899 15.9859 12.0079 15.9859C14.1968 15.9859 15.9647 14.2049 15.9647 12C15.9647 9.79505 14.1968 8.01413 12.0079 8.01413C9.81899 8.01413 8.05104 9.79505 8.05104 12ZM14.4073 12C14.4073 13.3349 13.333 14.417 12.0079 14.417C10.6828 14.417 9.60852 13.3349 9.60852 12C9.60852 10.6651 10.6828 9.58304 12.0079 9.58304C13.333 9.58304 14.4073 10.6651 14.4073 12Z" fill="#434856"/>
</svg>
