<svg width="25" height="24" viewBox="0 0 25 24" fill="none" xmlns="http://www.w3.org/2000/svg">
<path d="M0.659186 19.1839L4.80631 15.0367C5.22118 14.6218 5.77279 14.3933 6.35951 14.3933C6.8839 14.3933 7.37989 14.5763 7.77558 14.9112L9.12595 13.5608C7.94691 12.0866 7.30625 10.2701 7.30625 8.35484C7.30624 6.12315 8.17532 4.02513 9.75333 2.44713C11.3314 0.869089 13.4295 0 15.6611 0C17.8927 0 19.9908 0.869046 21.5688 2.44705C23.1468 4.02505 24.0159 6.12315 24.0159 8.35478C24.0158 10.5864 23.1468 12.6845 21.5688 14.2625C19.9908 15.8406 17.8927 16.7096 15.6611 16.7096C13.7457 16.7096 11.9292 16.069 10.455 14.8899L9.10464 16.2403C9.43955 16.636 9.62246 17.1319 9.62251 17.6563C9.62251 18.2431 9.39403 18.7947 8.97914 19.2095L4.83195 23.3567C4.41708 23.7715 3.86551 24 3.27878 24C2.69212 24 2.14051 23.7716 1.72556 23.3567L0.659229 22.2902C0.244328 21.8754 0.0158697 21.3238 0.0158697 20.737C0.0158555 20.1503 0.244327 19.5987 0.659186 19.1839ZM20.2398 12.9335C21.4628 11.7104 22.1364 10.0844 22.1364 8.3548C22.1364 6.62523 21.4628 4.99918 20.2398 3.77615C19.0168 2.55314 17.3907 1.87959 15.6611 1.87959C13.9315 1.87959 12.3054 2.55314 11.0824 3.77625C9.85936 4.99922 9.1858 6.62527 9.1858 8.35486C9.1858 10.0844 9.85934 11.7105 11.0824 12.9335C12.3054 14.1565 13.9314 14.8301 15.6611 14.8301C17.3906 14.83 19.0167 14.1565 20.2398 12.9335ZM1.98821 20.9612L3.05452 22.0275C3.13532 22.1083 3.22971 22.1204 3.27878 22.1204C3.32783 22.1204 3.42217 22.1083 3.50293 22.0276L7.6502 17.8804C7.73094 17.7997 7.743 17.7054 7.743 17.6563C7.743 17.6073 7.73093 17.513 7.65014 17.4322L6.58366 16.3657C6.50292 16.2849 6.40858 16.2729 6.35952 16.2729C6.31048 16.2729 6.21613 16.285 6.13534 16.3657L1.98822 20.5129C1.90745 20.5937 1.89539 20.688 1.89539 20.7371C1.89537 20.7861 1.90742 20.8804 1.98821 20.9612Z" fill="#434856"/>
</svg>
