<svg width="24" height="24" viewBox="0 0 24 24" fill="none" xmlns="http://www.w3.org/2000/svg">
<path fill-rule="evenodd" clip-rule="evenodd" d="M9 5C9 4.44772 9.44772 4 10 4H14C14.5523 4 15 4.44772 15 5V6H9V5ZM7 6H5C3.89543 6 3 6.89543 3 8H21C21 6.89543 20.1046 6 19 6H17V5C17 3.34315 15.6569 2 14 2H10C8.34315 2 7 3.34315 7 5V6Z" fill="#434856"/>
<path fill-rule="evenodd" clip-rule="evenodd" d="M5 9H19L18.142 20.1534C18.0619 21.1954 17.193 22 16.1479 22H7.85206C6.80699 22 5.93811 21.1954 5.85795 20.1534L5 9ZM9 12C9 11.4477 9.44772 11 10 11C10.5523 11 11 11.4477 11 12V18C11 18.5523 10.5523 19 10 19C9.44772 19 9 18.5523 9 18V12ZM14 11C13.4477 11 13 11.4477 13 12V18C13 18.5523 13.4477 19 14 19C14.5523 19 15 18.5523 15 18V12C15 11.4477 14.5523 11 14 11Z" fill="#434856"/>
</svg>
