<svg width="24" height="24" viewBox="0 0 24 24" fill="none" xmlns="http://www.w3.org/2000/svg">
<path fill-rule="evenodd" clip-rule="evenodd" d="M13 5C13 4.44772 12.5523 4 12 4C11.4477 4 11 4.44772 11 5V12.5858L8.70711 10.2929C8.31658 9.90237 7.68342 9.90237 7.29289 10.2929C6.90237 10.6834 6.90237 11.3166 7.29289 11.7071L11.2929 15.7071C11.6834 16.0976 12.3166 16.0976 12.7071 15.7071L16.7071 11.7071C17.0976 11.3166 17.0976 10.6834 16.7071 10.2929C16.3166 9.90237 15.6834 9.90237 15.2929 10.2929L13 12.5858V5ZM8 19C8 18.4477 8.44772 18 9 18H15C15.5523 18 16 18.4477 16 19C16 19.5523 15.5523 20 15 20H9C8.44772 20 8 19.5523 8 19Z" fill="#434856"/>
</svg>
