<svg width="1057" height="1057" viewBox="0 0 1057 1057" fill="none" xmlns="http://www.w3.org/2000/svg">
<path d="M28.3337 844.861L210.98 662.217C229.251 643.946 253.545 633.884 279.385 633.884C302.48 633.884 324.325 641.941 341.751 656.692L401.224 597.22C349.297 532.296 321.081 452.298 321.081 367.949C321.081 269.664 359.356 177.267 428.855 107.772C498.355 38.2748 590.758 0 689.043 0C787.327 0 879.728 38.2729 949.226 107.768C1018.73 177.264 1057 269.664 1057 367.946C1057 466.228 1018.72 558.628 949.226 628.125C879.728 697.621 787.324 735.895 689.041 735.895C604.686 735.895 524.682 707.68 459.757 655.753L400.285 715.224C415.035 732.651 423.091 754.493 423.093 777.584C423.093 803.428 413.031 827.72 394.758 845.99L212.109 1028.63C193.838 1046.9 169.545 1056.96 143.705 1056.96C117.867 1056.96 93.5738 1046.9 75.2984 1028.63L28.3357 981.666C10.0627 963.397 0.00106706 939.105 0.00106706 913.263C0.00044063 887.422 10.0627 863.13 28.3337 844.861ZM890.695 569.593C944.557 515.729 974.223 444.117 974.223 367.947C974.223 291.776 944.559 220.165 890.696 166.302C836.833 112.441 765.217 82.7776 689.044 82.7776C612.868 82.7776 541.251 112.441 487.388 166.307C433.524 220.167 403.86 291.778 403.86 367.949C403.86 444.12 433.524 515.731 487.389 569.594C541.251 623.455 612.865 653.118 689.041 653.118C765.214 653.117 836.83 623.455 890.695 569.593ZM86.8661 923.134L133.828 970.096C137.387 973.655 141.544 974.186 143.705 974.186C145.865 974.186 150.02 973.654 153.577 970.098L336.229 787.455C339.785 783.9 340.317 779.747 340.317 777.589C340.317 775.43 339.785 771.275 336.227 767.718L289.257 720.748C285.701 717.191 281.546 716.662 279.386 716.662C277.226 716.662 273.071 717.192 269.513 720.75L86.8667 903.394C83.3092 906.951 82.778 911.104 82.778 913.264C82.7774 915.424 83.3079 919.575 86.8661 923.134Z" fill="#434856"/>
</svg>
